<?xml version="1.0" encoding="UTF-8"?>
<svg id="_レイヤー_1" xmlns="http://www.w3.org/2000/svg" version="1.1" viewBox="0 0 447.3 56.7">
  <!-- Generator: Adobe Illustrator 29.7.1, SVG Export Plug-In . SVG Version: 2.1.1 Build 8)  -->
  <defs>
    <style>
      .st0 {
        fill: #fff;
      }
    </style>
  </defs>
  <path class="st0" d="M16.57,14.12c-1.28,0-2.16-1-2.16-2.28s.92-2.24,2.2-2.24,2.16,1,2.16,2.24c0,1.4-.92,2.28-2.2,2.28ZM18.25,39.75h-3.32v-21.8h3.32v21.8ZM42.28,39.75h-3.32v-12.88c0-3.56-1.28-6.68-5.08-6.68-2.84,0-5.72,2.4-5.72,6.2v13.36h-3.32v-16.2c0-2.24-.08-3.88-.16-5.64h2.96l.2,3.56h.08c1.08-2.12,3.6-4.04,7-4.04,2.72,0,7.36,1.64,7.36,9.04v13.28h0ZM49.09,17.96c0-2.72,0-6.28,2.4-8.72,1.44-1.4,3.32-1.96,5.04-1.96,1.4,0,2.52.32,3.24.64l-.56,2.6c-.6-.24-1.36-.52-2.52-.52-3.44,0-4.28,3.2-4.28,6.72v1.24h5.28v2.6h-5.28v19.2h-3.32v-19.2h-3v-2.6h3ZM79.64,28.67c0,8.12-5.36,11.56-10.2,11.56-5.6,0-9.92-4.2-9.92-11.24,0-7.44,4.64-11.56,10.2-11.56,5.96,0,9.92,4.56,9.92,11.24ZM69.6,20.04c-4.72,0-6.68,4.64-6.68,8.84,0,4.84,2.68,8.76,6.6,8.76s6.72-3.92,6.72-8.84c0-3.88-1.88-8.76-6.64-8.76h0ZM103.32,29.55c-.2,1.04-.32,1.96-.32,2.68,0,1.72.56,2.52,1.64,2.56,2.36.04,4.92-3.32,4.92-8.68,0-6.64-3.76-11.24-10.52-11.24-7.32,0-13.44,6.08-13.44,15.44,0,7.48,4.72,12.16,11.28,12.16,2.6,0,4.92-.6,6.72-1.6l.64,1.8c-2.36,1.28-4.84,1.8-7.76,1.8-7.24,0-13.24-5.24-13.24-13.96,0-9.44,6.36-17.56,16.16-17.56,7.56,0,12.48,5.4,12.48,12.76s-3.68,11.08-7.76,11.08c-1.72,0-3.32-1.2-3.16-4h-.16c-1.64,2.76-3.72,4-6.32,4s-4.68-2.04-4.68-5.52c0-5.56,4.36-10.88,10.6-10.88,1.84,0,3.4.36,4.52.88l-1.6,8.28ZM102.16,22.88c-.44-.16-1.2-.36-2.24-.36-4.16,0-7.48,4.12-7.48,8.64,0,2.08,1.04,3.48,3,3.48,2.68,0,5.12-3.52,5.68-6.32l1.04-5.44h0ZM134.28,39.75h-3.32v-12.88c0-3.56-1.28-6.68-5.08-6.68-2.84,0-5.72,2.4-5.72,6.2v13.36h-3.32v-16.2c0-2.24-.08-3.88-.16-5.64h2.96l.2,3.56h.08c1.08-2.12,3.6-4.04,7-4.04,2.72,0,7.36,1.64,7.36,9.04v13.28h0ZM159.24,28.67c0,8.12-5.36,11.56-10.2,11.56-5.6,0-9.92-4.2-9.92-11.24,0-7.44,4.64-11.56,10.2-11.56,5.96,0,9.92,4.56,9.92,11.24ZM149.2,20.04c-4.72,0-6.68,4.64-6.68,8.84,0,4.84,2.68,8.76,6.6,8.76s6.72-3.92,6.72-8.84c0-3.88-1.88-8.76-6.64-8.76h0ZM181.72,39.75h-3.32v-12.88c0-3.56-1.28-6.68-5.08-6.68-2.84,0-5.72,2.4-5.72,6.2v13.36h-3.32v-16.2c0-2.24-.08-3.88-.16-5.64h2.96l.2,3.56h.08c1.08-2.12,3.6-4.04,7-4.04,2.72,0,7.36,1.64,7.36,9.04v13.28h0ZM191.28,21.64c1.52-2.68,4.04-4.2,7.44-4.2,5.16,0,8.88,4.44,8.88,11.12,0,8-4.68,11.68-9.48,11.68-2.88,0-5.28-1.32-6.56-3.48h-.08v11.92h-3.32v-23.72c0-2.84-.08-5.04-.16-7.04h3l.2,3.72h.08,0ZM191.48,31.07c0,4.24,3.16,6.48,6.12,6.48,4.28,0,6.64-3.68,6.64-8.88,0-4.52-2.28-8.52-6.52-8.52-3.72,0-6.24,3.6-6.24,6.76v4.16h0ZM227.32,38.95c-.96.48-3.12,1.24-5.92,1.24-6.24,0-10.36-4.44-10.36-11.12s4.44-11.64,11.16-11.64c2.44,0,4.4.72,5.24,1.16l-.84,2.68c-.92-.52-2.36-1.12-4.48-1.12-5.04,0-7.68,4.04-7.68,8.72,0,5.28,3.16,8.6,7.56,8.6,2.16,0,3.64-.6,4.72-1.08l.6,2.56h0ZM242.16,21.28c-.8-.52-2.28-1.28-4.24-1.28-2.4,0-3.68,1.48-3.68,3.24,0,1.88,1.24,2.76,4.04,3.96,3.52,1.44,5.56,3.28,5.56,6.56,0,3.88-2.96,6.44-7.72,6.44-2.16,0-4.24-.6-5.72-1.48l.92-2.56c1.16.68,3.04,1.48,4.92,1.48,2.92,0,4.36-1.56,4.36-3.52s-1.16-3.16-4.04-4.32c-3.68-1.48-5.56-3.52-5.56-6.16,0-3.4,2.72-6.2,7.12-6.2,2.08,0,3.84.6,5,1.32l-.96,2.52h0ZM267.44,28.67c0,8.12-5.36,11.56-10.2,11.56-5.6,0-9.92-4.2-9.92-11.24,0-7.44,4.64-11.56,10.2-11.56,5.96,0,9.92,4.56,9.92,11.24ZM257.4,20.04c-4.72,0-6.68,4.64-6.68,8.84,0,4.84,2.68,8.76,6.6,8.76s6.72-3.92,6.72-8.84c0-3.88-1.88-8.76-6.64-8.76h0ZM287.2,38.95c-.96.48-3.12,1.24-5.92,1.24-6.24,0-10.36-4.44-10.36-11.12s4.44-11.64,11.16-11.64c2.44,0,4.4.72,5.24,1.16l-.84,2.68c-.92-.52-2.36-1.12-4.48-1.12-5.04,0-7.68,4.04-7.68,8.72,0,5.28,3.16,8.6,7.56,8.6,2.16,0,3.64-.6,4.72-1.08l.6,2.56h0ZM293.48,14.12c-1.28,0-2.16-1-2.16-2.28s.92-2.24,2.2-2.24,2.16,1,2.16,2.24c0,1.4-.92,2.28-2.2,2.28ZM295.16,39.75h-3.32v-21.8h3.32v21.8ZM317.2,38.83c-1.24.6-3.52,1.36-6.84,1.36-6.36,0-10.16-4.48-10.16-11,0-6.84,3.84-11.76,9.72-11.76,6.72,0,8.44,6.16,8.44,9.96,0,.76-.04,1.32-.08,1.84h-14.84c.04,6.04,3.48,8.32,7.4,8.32,2.72,0,4.36-.56,5.72-1.12l.64,2.4h0ZM315.08,26.75c.04-2.96-1.2-6.8-5.48-6.8-4,0-5.76,3.8-6.08,6.8h11.56ZM324.2,14l3.28-1.12v5.08h5.64v2.6h-5.64v12.6c0,2.76.84,4.28,2.96,4.28,1,0,1.68-.12,2.24-.32l.2,2.56c-.72.32-1.84.52-3.24.52-5.28,0-5.44-4.8-5.44-7.12v-12.52h-3.36v-2.6h3.36v-3.96h0ZM353.92,17.96l-5.8,15.44c-2.6,7.08-4.44,11.16-7.16,13.72-1.84,1.68-3.64,2.36-4.44,2.56l-.92-2.8c5.08-1.88,7.04-7.4,7.04-7.84,0-.2-.08-.52-.24-.92l-7.72-20.16h3.64l4.76,13.24c.56,1.52,1.04,3.24,1.4,4.56h.12c.36-1.32.88-2.96,1.4-4.64l4.4-13.16h3.52,0ZM355.88,37.71c0-1.52,1-2.6,2.4-2.6s2.36,1.08,2.36,2.6c0,1.44-.92,2.52-2.4,2.52s-2.36-1.2-2.36-2.52ZM380.24,38.95c-.96.48-3.12,1.24-5.92,1.24-6.24,0-10.36-4.44-10.36-11.12s4.44-11.64,11.16-11.64c2.44,0,4.4.72,5.24,1.16l-.84,2.68c-.92-.52-2.36-1.12-4.48-1.12-5.04,0-7.68,4.04-7.68,8.72,0,5.28,3.16,8.6,7.56,8.6,2.16,0,3.64-.6,4.72-1.08l.6,2.56h0ZM403.4,28.67c0,8.12-5.36,11.56-10.2,11.56-5.6,0-9.92-4.2-9.92-11.24,0-7.44,4.64-11.56,10.2-11.56,5.96,0,9.92,4.56,9.92,11.24ZM393.36,20.04c-4.72,0-6.68,4.64-6.68,8.84,0,4.84,2.68,8.76,6.6,8.76s6.72-3.92,6.72-8.84c0-3.88-1.88-8.76-6.64-8.76h0ZM438.11,39.75h-3.28v-12.6c0-4.24-1.52-6.96-4.8-6.96-2.68,0-5.12,2.52-5.12,5.84v13.72h-3.28v-13.44c0-3.48-1.48-6.12-4.56-6.12-2.84,0-5.36,2.8-5.36,6.2v13.36h-3.28v-16.2c0-2.24-.08-3.84-.16-5.64h2.92l.2,3.52h.12c1.2-2.12,3.2-4,6.64-4,2.84,0,5.04,1.76,5.96,4.36h.08c1.44-2.6,3.64-4.36,7-4.36,2.68,0,6.92,1.72,6.92,9.2v13.12h0Z"/>
</svg>