<svg width="13" height="13" viewBox="0 0 13 13" fill="none" xmlns="http://www.w3.org/2000/svg">
<path d="M10.7855 5.874V11.0171C10.7869 11.213 10.7492 11.4071 10.6746 11.5883C10.6 11.7694 10.4901 11.9338 10.3511 12.0719C10.2122 12.21 10.0471 12.319 9.86549 12.3925C9.6839 12.466 9.48947 12.5025 9.29359 12.4999H1.99144C1.79484 12.5024 1.59973 12.4655 1.41761 12.3914C1.23549 12.3174 1.07005 12.2076 0.931058 12.0685C0.792062 11.9295 0.682321 11.764 0.60831 11.5818C0.534299 11.3997 0.497516 11.2046 0.50013 11.008V3.70624C0.497781 3.50967 0.534767 3.31462 0.608913 3.13255C0.683059 2.95049 0.792868 2.78509 0.931879 2.64609C1.07089 2.50708 1.2363 2.39728 1.41837 2.32314C1.60045 2.24899 1.79551 2.21201 1.99209 2.21436H7.1348M12.5 0.5L5.64284 7.35679M12.5 0.5H9.0711M12.5 0.5V3.92872" stroke="white" stroke-linecap="round" stroke-linejoin="round"/>
</svg>
